<svg xmlns="http://www.w3.org/2000/svg" viewBox="0 0 21.3 31.9"><path d="M14.6 23.8H6.7c-.6 0-1.1.5-1.1 1.1 0 .6.5 1.1 1.1 1.1h7.9c.6 0 1.1-.5 1.1-1.1-.1-.6-.5-1.1-1.1-1.1zm-6 6.3v.6c0 .7.5 1.2 1.2 1.2h1.8c.7 0 1.2-.5 1.2-1.2v-.6c1.3-.1 2.4-1.2 2.4-2.6h-9c0 1.4 1 2.5 2.4 2.6zm2-30.1C4.8 0 0 4.8 0 10.6c0 2.5.9 4.8 2.3 6.6 1.3 1.6 2.5 3.3 3.5 5.1h9.8c1-1.8 2.2-3.5 3.5-5.1 1.4-1.8 2.3-4.1 2.3-6.6C21.3 4.8 16.5 0 10.6 0zm.1 3.7c-3.8 0-6.9 3.1-6.9 6.9 0 .6-.5 1.1-1.1 1.1-.6 0-1.1-.5-1.1-1.1 0-4.9 4-9 9-9 .6 0 1.1.5 1.1 1.1s-.5 1-1 1zm0 0" fill="#d3d3d3"/></svg>