<svg xmlns="http://www.w3.org/2000/svg" viewBox="0 0 28.4 31.9"><g fill="#ee2a7b"><path d="M14.2 31.9c-3.8 0-7.4-1.5-10.1-4.2C1.5 25 0 21.5 0 17.7s1.5-7.4 4.2-10.1c.9-.9 2.2-.9 3.1 0 .9.9.9 2.2 0 3.1-1.9 1.9-2.9 4.3-2.9 7 0 2.6 1 5.1 2.9 7 1.9 1.9 4.3 2.9 7 2.9 2.6 0 5.1-1 7-2.9 1.9-1.9 2.9-4.3 2.9-7 0-2.6-1-5.1-2.9-7-.9-.9-.9-2.2 0-3.1.9-.9 2.2-.9 3.1 0 2.7 2.7 4.2 6.3 4.2 10.1s-1.5 7.4-4.2 10.1c-2.8 2.6-6.4 4.1-10.2 4.1zm0 0"/><path d="M14.2 15.3c-1.2 0-2.2-1-2.2-2.2V2.2C12 1 13 0 14.2 0c1.2 0 2.2 1 2.2 2.2v10.9c0 1.2-1 2.2-2.2 2.2zm0 0"/></g></svg>