<svg xmlns="http://www.w3.org/2000/svg" viewBox="0 0 30.4 32.6"><path d="M2.6 13.6c1 0 2-.6 2.4-1.6 1.7-4 5.6-6.8 10.2-6.8 2.5 0 4.8.9 6.7 2.3l-1.5.2c-.5.1-.9.5-1 1-.1.5.2 1 .7 1.2l8 3.6c.4.2.8.1 1.1-.1.3-.2.5-.6.5-.9V3.7c0-.5-.3-.9-.8-1.1-.5-.1-1 0-1.3.5l-1.1 1.7C23.7 1.8 19.6 0 15.2 0 8.5 0 2.7 4.1.2 10c-.3.8-.3 1.7.2 2.5.5.7 1.3 1.1 2.2 1.1zM30 20.1c-.5-.7-1.3-1.2-2.2-1.2-1 0-2 .6-2.4 1.6-1.7 4-5.6 6.8-10.2 6.8-2.5 0-4.8-.9-6.7-2.3l1.5-.2c.5-.1.9-.5 1-1 .1-.5-.2-1-.7-1.2l-8-3.6c-.4-.2-.8-.1-1.1.1-.3.2-.5.6-.5.9v8.8c0 .5.3.9.8 1.1.5.1 1 0 1.3-.5l1.1-1.7c2.9 2.9 7 4.7 11.4 4.7 6.7 0 12.5-4.1 15-10 .2-.6.2-1.5-.3-2.3zm0 0" fill="#809453"/></svg>