<svg xmlns="http://www.w3.org/2000/svg" viewBox="0 0 32.3 32.3"><path d="M32.2 14.4c-.1-.5-.6-.8-1-.8-1.5 0-2.8-.9-3.3-2.2-.6-1.4-.2-3 .9-4 .3-.3.4-.8.1-1.2-.8-1-1.6-1.8-2.6-2.6-.4-.3-.9-.3-1.2.1-1 1.1-2.7 1.5-4 .9-1.4-.6-2.3-2-2.2-3.5 0-.5-.3-.9-.8-.9-1.2-.1-2.4-.1-3.6 0-.5.1-.8.5-.8.9.1 1.5-.8 2.9-2.2 3.4-1.3.5-3 .1-4-.9-.4-.4-1-.4-1.3-.1-1 .7-1.9 1.6-2.6 2.5-.3.4-.3.9.1 1.3 1.1 1 1.5 2.6.9 4-.6 1.3-2 2.2-3.6 2.2-.5 0-.9.3-.9.8C0 15.5 0 16.7.1 18c.1.5.6.8 1.1.8 1.4 0 2.8.8 3.3 2.2.6 1.4.2 3-.9 4-.3.3-.4.8-.1 1.2.7 1 1.6 1.8 2.6 2.6.3.2.8.2 1.2-.2 1-1.1 2.7-1.5 4-.9 1.4.6 2.3 2 2.2 3.5 0 .5.3.9.8.9.6.1 1.2.1 1.9.1.6 0 1.2 0 1.8-.1.5-.1.8-.5.8-.9-.1-1.5.8-2.9 2.2-3.4 1.3-.5 3-.1 4 .9.3.3.8.4 1.2.1 1-.8 1.8-1.6 2.6-2.6.3-.4.3-.9-.1-1.2-1.1-1-1.5-2.6-.9-4 .5-1.3 1.9-2.2 3.3-2.2h.2c.5 0 .9-.3.9-.8.1-1.2.1-2.4 0-3.6zm-16 7.2c-3 0-5.4-2.4-5.4-5.4 0-3 2.4-5.4 5.4-5.4 3 0 5.4 2.4 5.4 5.4 0 2.9-2.5 5.4-5.4 5.4zm0 0" fill-rule="evenodd" clip-rule="evenodd" fill="#bb6e3d"/></svg>